<?xml version="1.0" encoding="UTF-8" standalone="no"?>
<!-- Created with Inkscape (http://www.inkscape.org/) -->

<svg
  width="130.40224mm"
  height="135.46666mm"
  viewBox="0 0 130.40224 135.46666"
  version="1.1"
  id="svg1"
  xml:space="preserve"
  inkscape:version="1.3 (0e150ed6c4, 2023-07-21)"
  sodipodi:docname="QB64 Phoenix Edition v2.svg"
  inkscape:export-filename="QB64 Phoenix Edition v2.png"
  inkscape:export-xdpi="96"
  inkscape:export-ydpi="96"
  xmlns:inkscape="http://www.inkscape.org/namespaces/inkscape"
  xmlns:sodipodi="http://sodipodi.sourceforge.net/DTD/sodipodi-0.dtd"
  xmlns="http://www.w3.org/2000/svg"
  xmlns:svg="http://www.w3.org/2000/svg"
  xmlns:rdf="http://www.w3.org/1999/02/22-rdf-syntax-ns#"
  xmlns:cc="http://creativecommons.org/ns#"
  xmlns:dc="http://purl.org/dc/elements/1.1/"><title
    id="title38">QB64 Phoenix Edition Logo</title><sodipodi:namedview
    id="namedview1"
    pagecolor="#505050"
    bordercolor="#ffffff"
    borderopacity="1"
    inkscape:showpageshadow="0"
    inkscape:pageopacity="0"
    inkscape:pagecheckerboard="1"
    inkscape:deskcolor="#505050"
    inkscape:document-units="mm"
    inkscape:zoom="1.4699074"
    inkscape:cx="233.34803"
    inkscape:cy="228.24567"
    inkscape:window-width="1920"
    inkscape:window-height="1007"
    inkscape:window-x="0"
    inkscape:window-y="0"
    inkscape:window-maximized="1"
    inkscape:current-layer="layer1"
    showguides="false"
    guidecolor="#00c7e5"
    guideopacity="1"><sodipodi:guide
      position="20.260605,184.75054"
      orientation="0,-1"
      id="guide37"
      inkscape:locked="false" /><sodipodi:guide
      position="21.911695,170.97371"
      orientation="0,-1"
      id="guide38"
      inkscape:locked="false" /></sodipodi:namedview><defs
    id="defs1"><linearGradient
      id="swatch7"
      inkscape:swatch="solid"
      inkscape:label="PE"
      inkscape:pinned="true"
      gradientTransform="matrix(0.02455816,0,0,0.02438176,-818.71178,-1921.1523)"><stop
        style="stop-color:#e5f20d;stop-opacity:1;"
        offset="0"
        id="stop7" /></linearGradient><linearGradient
      id="swatch6"
      inkscape:swatch="solid"
      inkscape:label="4"
      inkscape:pinned="true"
      gradientTransform="matrix(0.255601,0,0,0.255601,-233.17035,-343.69801)"><stop
        style="stop-color:#f25e0d;stop-opacity:1;"
        offset="0"
        id="stop6" /></linearGradient><linearGradient
      id="swatch5"
      inkscape:swatch="solid"
      inkscape:label="6"
      inkscape:pinned="true"
      gradientTransform="matrix(0.05970374,0,0,0.06844169,-217.88709,-1381.678)"><stop
        style="stop-color:#f2af0d;stop-opacity:1;"
        offset="0"
        id="stop5" /></linearGradient><linearGradient
      id="swatch4"
      inkscape:swatch="solid"
      inkscape:label="B"
      inkscape:pinned="true"
      gradientTransform="matrix(0.255601,0,0,0.255601,-235.80091,-337.35782)"><stop
        style="stop-color:#1a32e6;stop-opacity:1;"
        offset="0"
        id="stop4" /></linearGradient><linearGradient
      id="swatch3"
      inkscape:swatch="solid"
      inkscape:label="Q"
      inkscape:pinned="true"
      gradientTransform="matrix(0.07624401,0,0,0.08476883,-524.56051,39.73072)"><stop
        style="stop-color:#4da1b3;stop-opacity:1;"
        offset="0"
        id="stop3" /></linearGradient><linearGradient
      id="swatch2"
      inkscape:swatch="solid"
      inkscape:label="Outline"
      inkscape:pinned="true"
      gradientTransform="matrix(0.00127701,0,0,0.0014534,-590989.07,-1333519.9)"><stop
        style="stop-color:#000000;stop-opacity:1;"
        offset="0"
        id="stop2" /></linearGradient><linearGradient
      id="swatch1"
      inkscape:swatch="solid"
      inkscape:label="Phoenix"
      inkscape:pinned="true"
      gradientTransform="matrix(-0.143119,0,0,0.143119,-291.49521,-737.36926)"><stop
        style="stop-color:#ff0000;stop-opacity:1;"
        offset="0"
        id="stop1" /></linearGradient></defs><g
    inkscape:label="QB64 PE Logo"
    inkscape:groupmode="layer"
    id="layer1"
    transform="translate(-86.855294,-130.03804)"><path
      id="path7"
      style="display:inline;fill:url(#swatch1);fill-opacity:1;stroke:url(#swatch2);stroke-width:0.96605;stroke-linecap:square;stroke-miterlimit:32;stroke-dasharray:none"
      d="m 133.4537,132.55808 c -16.63157,2.20314 -27.79486,10.42926 -27.79486,10.42926 -2.11849,14.39806 -0.13714,19.52514 2.11135,23.7362 -6.62658,-4.64738 -7.910045,-11.65279 -8.156717,-19.21917 -8.741469,6.55339 -10.016623,14.5708 -9.705795,17.90027 0.310791,3.32951 11.679012,14.02447 17.181372,17.92288 -8.237184,-0.64017 -14.709455,-6.30551 -19.305928,-12.88318 -2.036261,15.3882 3.353208,20.47051 7.403875,22.25311 4.050667,1.7826 20.098943,4.46266 23.824853,5.63218 -6.21725,0.48346 -18.00482,-1.73337 -22.119169,-2.53777 3.394739,5.59673 24.125249,15.43906 33.862729,16.67758 -2.8307,-0.98225 -8.87153,-6.18775 -10.97751,-8.79636 11.62842,2.13852 13.72462,4.2694 24.28901,9.23977 -1.17934,7.63962 -9.56805,15.94362 -9.56805,15.94362 l 1.22265,6.14156 c 0,0 4.03141,-6.3507 7.73408,-9.53595 0.27566,5.45072 -4.00462,10.56206 -6.70199,15.79644 3.82154,2.1996 7.24021,8.11264 9.46618,12.29638 -1.31546,-8.43193 1.4151,-22.90974 1.4151,-22.90974 l 5.3246,31.35326 3.42269,-31.55327 c 0,0 2.62336,10.41214 2.22268,22.80597 3.47574,-8.24021 9.80768,-12.19072 9.80768,-12.19072 0,0 0.14459,-0.36256 -4.01514,-6.27556 -3.71062,-5.14387 -3.41326,-10.37749 -3.41326,-10.37749 l 7.26048,9.64728 1.5717,-5.01326 -5.65102,-6.09633 c 0,0 -0.8851,-4.95006 -1.29812,-10.02277 5.08465,-2.85686 11.84049,-6.43166 20.84556,-8.66992 -1.30418,2.81293 -4.4003,4.87521 -10.12088,8.85106 10.8168,-0.54564 30.64324,-13.68396 34.81369,-17.46815 -5.99898,1.84178 -15.95527,2.67112 -22.09278,1.80377 6.67413,-0.9407 23.4518,-4.50403 26.94189,-7.86615 3.49009,-3.36211 3.56541,-10.10591 3.51028,-18.45003 -7.05503,7.00588 -11.49684,11.59729 -18.07049,11.91063 4.74592,-2.91863 13.42625,-13.08541 16.33193,-18.14961 -0.73664,-4.32425 -2.07273,-8.3124 -9.43409,-17.00591 -1.34752,10.57718 -3.13742,12.52068 -8.73407,17.70592 6.56225,-8.84405 1.17927,-22.61162 1.17927,-22.61162 0,0 -11.53442,-5.96791 -27.24567,-10.13223 8.72345,3.33334 12.97302,7.03275 17.52668,13.8851 4.55365,6.85235 0.44435,16.10004 -1.57174,20.75125 8.59627,15.92376 2.26853,24.11698 -20.46065,33.07779 19.8973,-11.63135 19.36225,-14.53772 20.74851,-24.56122 -6.15511,11.89972 -19.07304,15.45922 -19.07304,15.45922 -1.14838,5.92318 -1.04425,5.66785 -1.72075,9.12088 -1.48827,0.58624 -2.93864,1.14075 -4.27554,1.63399 -1.64549,-3.83644 -3.07173,-13.44735 -3.07173,-13.44735 0,0 0.30086,-0.19644 2.41827,-1.50766 1.83722,-1.13761 3.97771,-5.33052 3.75729,-9.58689 -2.52956,6.89977 -8.21907,5.97583 -15.25117,6.94917 -7.0321,0.97331 -11.72435,16.08971 -8.44727,11.01335 3.277,-5.0765 8.46235,-5.15103 8.46235,-5.15103 0,0 -2.4588,6.43538 -7.48875,12.30961 -1.1424,-0.34212 -2.23064,-0.69943 -3.27931,-1.06795 -0.94369,-3.47891 -0.55133,-3.34364 -1.72454,-9.1284 0,0 -13.8535,-4.86204 -20.00862,-16.76175 1.38721,10.0304 1.78466,14.23945 21.72374,25.88829 -6.44735,-2.26671 -34.90023,-13.69283 -20.19086,-34.35331 0,0 -4.58874,-3.57973 -4.58874,-14.91719 0.0862,-12.14942 7.33776,-17.34518 19.17776,-19.88785 z"
      inkscape:label="phoenix"
      sodipodi:nodetypes="ccccsccscccccccccccccccccccccccccscccccccscccccccscsccccccccsc" /><path
      id="path34"
      style="display:inline;fill:url(#swatch7);fill-opacity:1;stroke:url(#swatch2);stroke-width:0.96605;stroke-linecap:butt;stroke-linejoin:miter;stroke-miterlimit:4;stroke-dasharray:none;stroke-dashoffset:0;stroke-opacity:1"
      inkscape:label="E"
      d="m 161.84636,199.39042 -6.18498,23.08526 h 17.64743 l 1.06794,-4.65103 -10.84356,-0.0183 1.27172,-4.99063 10.71712,0.0219 1.10756,-4.82457 h -10.86051 l 0.87549,-3.60196 10.79826,0.0602 1.16605,-5.08121 z" /><path
      id="path33"
      style="display:inline;fill:url(#swatch7);fill-opacity:1;stroke:url(#swatch2);stroke-width:0.96605;stroke-linecap:butt;stroke-linejoin:miter;stroke-miterlimit:4;stroke-dasharray:none;stroke-dashoffset:0;stroke-opacity:1"
      d="m 132.32336,199.39042 -5.55668,23.08526 h 7.10386 l 2.03594,-7.33588 h 9.00766 c 2.9091,0 5.39058,-4.89055 5.39058,-8.39645 0,-3.50582 -1.41349,-7.35293 -6.3265,-7.35293 z m 5.78141,5.19576 h 3.67976 c 0,0 2.51759,-0.51636 2.32627,2.41568 -0.19133,2.93203 -2.40758,2.80004 -2.40758,2.80004 h -4.83644 z"
      sodipodi:nodetypes="ccccssscccsccc"
      inkscape:label="P" /><path
      id="path32"
      style="display:inline;fill:url(#swatch6);fill-opacity:1;stroke:url(#swatch2);stroke-width:0.96605;stroke-linecap:butt;stroke-linejoin:miter;stroke-miterlimit:4;stroke-dasharray:none;stroke-dashoffset:0;stroke-opacity:1"
      d="m 163.44833,160.55795 -12.31526,12.253 v 4.94722 h 13.15869 v 4.98497 h 6.6718 v -4.98497 h 3.9321 v -5.07366 h -3.9321 v -12.12656 z m 0.6623,7.01519 v 5.24157 h -5.0963 z"
      inkscape:label="4" /><path
      id="path31"
      style="display:inline;fill:url(#swatch5);fill-opacity:1;stroke:url(#swatch2);stroke-width:0.96605;stroke-linecap:butt;stroke-linejoin:miter;stroke-miterlimit:4;stroke-dasharray:none;stroke-dashoffset:0;stroke-opacity:1"
      d="m 137.3555,160.55795 c 0,0 -5.13105,5.74902 -6.37556,7.01519 -0.48565,0.49412 -4.35373,4.23125 -4.33968,7.32839 0.0468,10.32396 21.35189,9.30494 21.4267,0 0.0588,-7.32814 -9.45486,-7.32839 -9.45486,-7.32839 l 6.11141,-7.01519 h -0.63206 z m -0.0661,12.08165 c 2.21235,1.1e-4 4.00586,0.93245 4.00663,2.08277 0.001,1.15097 -1.79301,2.08437 -4.00663,2.08447 -2.21428,3.7e-4 -4.00942,-0.93314 -4.00836,-2.08447 7.6e-4,-1.15069 1.79536,-2.08313 4.00836,-2.08277 z"
      sodipodi:nodetypes="csscccccccccc"
      inkscape:label="6" /><path
      id="rect26"
      style="display:inline;fill:url(#swatch4);fill-opacity:1;stroke:url(#swatch2);stroke-width:0.96605;stroke-linecap:butt;stroke-linejoin:miter;stroke-miterlimit:4;stroke-dasharray:none;stroke-dashoffset:0;stroke-opacity:1"
      d="m 153.06515,134.99289 v 21.27389 h 16.41992 c 2.8171,6.2e-4 5.08034,-2.46844 5.08034,-6.51249 0,-1.99678 -0.37936,-3.26853 -2.26324,-4.56556 2.26324,-1.55381 2.26324,-3.62879 2.26324,-5.44319 0,-2.36716 -2.18259,-4.7483 -5.11623,-4.75286 z m 6.07402,4.75265 7.69534,2.5e-4 c 0.87118,4e-5 1.57174,0.70052 1.57174,1.57174 0,0.87118 -0.70056,1.57364 -1.57174,1.5736 l -7.69534,-2.5e-4 z m -0.0365,8.36617 7.69534,2.6e-4 c 0.87121,4e-5 1.57174,0.70239 1.57174,1.5736 0,0.87118 -0.70053,1.57174 -1.57174,1.5717 l -7.69534,-2.5e-4 z"
      sodipodi:nodetypes="cccccccccssscccssscc"
      inkscape:label="B" /><path
      id="path26"
      style="display:inline;fill:url(#swatch3);fill-opacity:1;stroke:url(#swatch2);stroke-width:0.96605;stroke-linecap:butt;stroke-linejoin:miter;stroke-miterlimit:4;stroke-dasharray:none;stroke-dashoffset:0;stroke-opacity:1"
      d="m 137.84418,134.99289 c -6.11819,1.5e-4 -11.07781,4.76294 -11.0775,10.6379 7.8e-4,5.87422 4.96009,10.63584 11.0775,10.63599 1.08094,-0.001 2.15586,-0.15445 3.19058,-0.45472 l 1.95384,2.71891 h 7.31612 l -4.30573,-5.70196 v 0 c 1.89531,-1.95975 2.91469,-4.52221 2.9228,-7.19669 2.9e-4,-5.87495 -4.95931,-10.63775 -11.0775,-10.63789 z m 0,4.7529 c 2.66068,4.8e-4 4.8173,2.68595 4.81705,5.99822 -6.2e-4,3.31154 -2.15699,5.99581 -4.81705,5.99628 -2.66006,-4.7e-4 -4.81643,-2.68474 -4.81704,-5.99628 -2.5e-4,-3.31231 2.1564,-5.99774 4.81704,-5.99822 z"
      sodipodi:nodetypes="cccccccccccccccc"
      inkscape:label="Q" /></g><metadata
    id="metadata38"><rdf:RDF><cc:Work
        rdf:about=""><dc:title>QB64 Phoenix Edition Logo</dc:title><dc:date>10/05/2023</dc:date></cc:Work></rdf:RDF></metadata></svg>